<svg width="164" height="48" viewBox="0 0 164 48" fill="none" xmlns="http://www.w3.org/2000/svg">
<g clip-path="url(#clip0_8624_21908)">
<path d="M45.8503 14.0132H53.4724C58.3317 14.0132 62.346 16.8248 62.346 23.2443V24.5932C62.346 31.0615 58.5918 33.9706 53.6187 33.9706H45.8503V14.0132ZM50.1083 17.6374V30.3301H53.3749C56.1377 30.3301 57.9905 28.5262 57.9905 24.5119V23.4556C57.9905 19.4414 56.0402 17.6374 53.2286 17.6374H50.1083ZM64.605 17.8324H68.0179L68.5704 21.5866C69.2205 19.0351 70.8782 17.6699 73.8848 17.6699H74.9412V21.9767H73.186C69.7243 21.9767 68.8792 23.1793 68.8792 26.5922V34.0193H64.67V17.8324H64.605ZM75.7863 26.2509V25.7958C75.7863 20.384 79.2479 17.4261 83.961 17.4261C88.7716 17.4261 92.1357 20.384 92.1357 25.7958V26.2509C92.1357 31.5653 88.8691 34.4256 83.961 34.4256C78.7441 34.3769 75.7863 31.5815 75.7863 26.2509ZM87.8289 26.2021V25.7958C87.8289 22.7892 86.3175 20.9853 83.9122 20.9853C81.5557 20.9853 79.9955 22.643 79.9955 25.7958V26.2021C79.9955 29.1112 81.507 30.7689 83.9122 30.7689C86.3175 30.7202 87.8289 29.1112 87.8289 26.2021ZM94.346 17.8324H97.8564L98.2627 20.8878C99.1078 18.84 100.912 17.4261 103.577 17.4261C107.689 17.4261 110.403 20.384 110.403 25.8609V26.3159C110.403 31.6303 107.396 34.4419 103.577 34.4419C101.026 34.4419 99.2703 33.288 98.4089 31.4353V39.61H94.2972L94.346 17.8324ZM106.129 26.2021V25.8446C106.129 22.6267 104.471 21.034 102.261 21.034C99.9041 21.034 98.3439 22.838 98.3439 25.8446V26.1534C98.3439 29.0137 99.8554 30.8177 102.212 30.8177C104.633 30.7689 106.129 29.225 106.129 26.2021ZM116.627 31.029L116.27 33.9868H112.662V12.4205H116.774V20.6928C117.684 18.58 119.488 17.4261 122.039 17.4261C125.907 17.4749 128.768 20.1402 128.768 25.5033V26.0071C128.768 31.3703 126.053 34.4419 121.942 34.4419C119.228 34.3769 117.472 33.1255 116.627 31.029ZM124.444 26.0071V25.6008C124.444 22.643 122.836 20.9853 120.577 20.9853C118.269 20.9853 116.66 22.838 116.66 25.6496V26.0071C116.66 29.0137 118.22 30.7689 120.528 30.7689C122.998 30.7689 124.444 29.225 124.444 26.0071ZM130.571 26.2509V25.7958C130.571 20.384 134.033 17.4261 138.746 17.4261C143.557 17.4261 146.921 20.384 146.921 25.7958V26.2509C146.921 31.5653 143.605 34.4256 138.746 34.4256C133.529 34.3769 130.571 31.5815 130.571 26.2509ZM142.647 26.2021V25.7958C142.647 22.7892 141.135 20.9853 138.73 20.9853C136.373 20.9853 134.813 22.643 134.813 25.7958V26.2021C134.813 29.1112 136.325 30.7689 138.73 30.7689C141.151 30.7202 142.647 29.1112 142.647 26.2021ZM152.43 25.6008L146.758 17.8324H151.618L154.884 22.6917L158.2 17.8324H163.01L157.257 25.5521L163.319 33.9868H158.557L154.852 28.6237L151.244 33.9868H146.271L152.43 25.6008Z" fill="black"/>
<path d="M19.6522 14.0132L10.2261 20.0264L19.6522 26.0396L10.2261 32.0528L0.799988 26.0071L10.2261 19.9939L0.799988 14.0132L10.2261 8L19.6522 14.0132ZM10.1773 33.9868L19.6034 27.9736L29.0295 33.9868L19.6034 40L10.1773 33.9868ZM19.6522 26.0071L29.0783 19.9939L19.6522 14.0132L29.0295 8L38.4557 14.0132L29.0295 20.0264L38.4557 26.0396L29.0295 32.0528L19.6522 26.0071Z" fill="#0061FF"/>
</g>
<defs>
<clipPath id="clip0_8624_21908">
<rect width="163" height="48" fill="white" transform="translate(0.799988)"/>
</clipPath>
</defs>
</svg>
