<svg width="122" height="48" viewBox="0 0 122 48" fill="none" xmlns="http://www.w3.org/2000/svg">
<g clip-path="url(#clip0_8624_21902)">
<path d="M38.1253 32.4262L39.5934 28.9948C41.2009 30.1852 43.2976 30.8152 45.3947 30.8152C46.9325 30.8152 47.9109 30.2203 47.9109 29.31C47.8758 26.7888 38.6496 28.7496 38.5794 22.411C38.5443 19.1896 41.4104 16.7035 45.4649 16.7035C47.8758 16.7035 50.2878 17.2989 52 18.6648L50.6281 22.1694C49.0527 21.1564 47.1069 20.4502 45.2549 20.4502C43.9968 20.4502 43.1577 21.0452 43.1577 21.8161C43.1928 24.3022 52.4897 22.9363 52.5945 28.9948C52.5945 32.2864 49.7981 34.5976 45.8138 34.5976C42.8785 34.5976 40.1874 33.8973 38.1248 32.4262H38.1253ZM96.5834 27.7522C96.2128 28.4106 95.6737 28.9587 95.0215 29.34C94.3692 29.7214 93.6273 29.9225 92.8717 29.9225C90.5169 29.9225 88.6082 28.0098 88.6082 25.6505C88.6082 23.2912 90.5169 21.3785 92.8717 21.3785C93.6273 21.3785 94.3692 21.5796 95.0215 21.961C95.6737 22.3424 96.2128 22.8904 96.5834 23.5488L100.665 21.2833C99.1361 18.551 96.22 16.7035 92.8717 16.7035C87.9401 16.7035 83.9422 20.7088 83.9422 25.6505C83.9422 30.5917 87.9401 34.5976 92.8717 34.5976C96.22 34.5976 99.1361 32.75 100.665 30.0178L96.5834 27.7522ZM55.243 34.2472H60.3456V9.25562H55.2435L55.243 34.2472ZM103.242 9.25562V34.2472H108.344V26.7597L114.391 34.2472H120.913L113.224 25.3523L120.353 17.0523H114.111L108.344 23.9528V9.25562H103.242ZM76.0658 17.0533V19.0848C75.2272 17.6839 73.1651 16.7035 70.9983 16.7035C66.5248 16.7035 62.9951 20.6607 62.9951 25.633C62.9951 30.6052 66.5248 34.5976 70.9983 34.5976C73.1651 34.5976 75.2272 33.6171 76.0658 32.2162V34.2472H81.1684V17.0533H76.0658ZM76.0658 27.7868C75.332 29.0123 73.7942 29.922 72.082 29.922C69.7267 29.922 67.818 28.0098 67.818 25.6505C67.818 23.2912 69.7267 21.3785 72.082 21.3785C73.7942 21.3785 75.332 22.3238 76.0658 23.5839V27.7868Z" fill="black"/>
<path d="M11.1781 8.70361C9.52449 8.70361 8.18418 10.0469 8.18418 11.7035C8.18379 12.0971 8.26092 12.4868 8.41116 12.8506C8.5614 13.2143 8.78182 13.5449 9.05982 13.8235C9.33783 14.1021 9.66798 14.3231 10.0314 14.4741C10.3949 14.6251 10.7845 14.703 11.1781 14.7034H14.1724V11.7035C14.1731 10.9086 13.858 10.1461 13.2965 9.58348C12.7349 9.0209 11.9729 8.70441 11.1781 8.70361ZM11.1781 16.7033H3.19389C1.54031 16.7033 0.200012 18.0466 0.200012 19.7037C0.200012 21.3603 1.54031 22.7036 3.19389 22.7036H11.1786C12.8316 22.7036 14.1724 21.3603 14.1724 19.7037C14.1724 18.0466 12.8316 16.7033 11.1781 16.7033Z" fill="#36C5F0"/>
<path d="M30.1411 19.7037C30.1411 18.0466 28.8003 16.7033 27.1468 16.7033C25.4932 16.7033 24.1529 18.0466 24.1529 19.7037V22.7036H27.1468C27.9416 22.7028 28.7036 22.3863 29.2652 21.8237C29.8267 21.2612 30.1418 20.4986 30.1411 19.7037ZM22.157 19.7037V11.7035C22.1576 10.9086 21.8425 10.1461 21.281 9.58348C20.7195 9.0209 19.9574 8.70441 19.1626 8.70361C17.509 8.70361 16.1687 10.0469 16.1687 11.7035V19.7032C16.1687 21.3608 17.509 22.7041 19.1626 22.7041C19.9574 22.7033 20.7195 22.3868 21.281 21.8242C21.8425 21.2617 22.1576 20.4991 22.157 19.7042" fill="#2EB67D"/>
<path d="M19.1626 38.7036C19.9574 38.7028 20.7195 38.3863 21.281 37.8237C21.8425 37.2612 22.1576 36.4986 22.157 35.7037C22.1576 34.9088 21.8425 34.1463 21.281 33.5837C20.7195 33.0211 19.9574 32.7046 19.1626 32.7038H16.1687V35.7037C16.1687 37.3603 17.509 38.7036 19.1626 38.7036ZM19.1626 30.7039H27.1473C28.8003 30.7039 30.1411 29.3606 30.1411 27.7035C30.1418 26.9086 29.8267 26.1461 29.2652 25.5835C28.7036 25.0209 27.9416 24.7044 27.1468 24.7036H19.1626C17.509 24.7036 16.1687 26.0469 16.1687 27.7035C16.1683 28.0971 16.2454 28.4868 16.3957 28.8506C16.5459 29.2143 16.7663 29.5449 17.0443 29.8235C17.3224 30.1021 17.6525 30.3231 18.016 30.4741C18.3794 30.6251 18.769 30.703 19.1626 30.7034" fill="#ECB22E"/>
<path d="M0.200014 27.7035C0.199619 28.0971 0.276744 28.4868 0.426987 28.8506C0.577229 29.2143 0.797647 29.5449 1.07565 29.8235C1.35366 30.1021 1.68381 30.3231 2.04726 30.4741C2.41071 30.6251 2.80033 30.703 3.19389 30.7034C3.98876 30.7026 4.75076 30.3861 5.3123 29.8235C5.87384 29.261 6.18893 28.4984 6.18827 27.7035V24.7036H3.19389C1.54032 24.7036 0.200014 26.0469 0.200014 27.7035ZM8.18419 27.7035V35.7032C8.18419 37.3603 9.52449 38.7036 11.1781 38.7036C11.9729 38.7028 12.7349 38.3863 13.2965 37.8237C13.858 37.2612 14.1731 36.4986 14.1724 35.7037V27.7035C14.1728 27.3099 14.0957 26.9201 13.9454 26.5563C13.7951 26.1925 13.5747 25.8619 13.2966 25.5833C13.0186 25.3048 12.6884 25.0837 12.3248 24.9327C11.9613 24.7818 11.5717 24.7039 11.1781 24.7036C9.52449 24.7036 8.18419 26.0469 8.18419 27.7035Z" fill="#E01E5A"/>
</g>
<defs>
<clipPath id="clip0_8624_21902">
<rect width="121" height="48" fill="white" transform="translate(0.200012)"/>
</clipPath>
</defs>
</svg>
