<svg width="121" height="48" viewBox="0 0 121 48" fill="none" xmlns="http://www.w3.org/2000/svg">
<g clip-path="url(#clip0_8624_21911)">
<path d="M38.9307 21.8009C38.9307 19.6682 36.798 17.3934 33.2435 17.3934C29.2625 17.3934 24.7127 20.3791 24.0018 26.3507C23.2909 32.3223 26.9876 35.0237 30.8264 35.0237C34.6653 35.0237 36.5136 33.6019 38.5042 31.6114C36.798 29.4787 34.5231 30.4739 34.0966 30.6161C33.67 30.9005 32.9591 31.1848 31.8217 31.1848C30.3999 31.1848 28.8359 30.4739 28.8359 27.7725C38.2198 26.7773 38.9307 23.9336 38.9307 21.8009ZM34.3809 22.0853C34.3809 22.7962 34.0966 23.9336 29.4046 24.5024C30.3999 20.9479 32.2482 20.6635 33.1013 20.6635C33.9544 20.8057 34.3809 21.3744 34.3809 22.0853ZM18.599 22.654C18.599 22.654 16.6084 28.91 16.4663 29.4787C16.4663 28.91 14.9023 17.6777 14.9023 17.6777C11.4899 17.6777 9.64161 20.0948 8.78853 22.654C8.78853 22.654 6.37147 28.91 6.22929 29.4787C6.08711 29.0521 5.80275 22.7962 5.80275 22.7962C5.51839 19.6682 2.67478 17.6777 0.399902 17.6777L3.2435 34.7393C6.79801 34.7393 8.78853 32.3223 9.78379 29.763C9.78379 29.763 11.9165 24.218 12.0587 23.9336C12.0587 24.218 13.6227 34.7393 13.6227 34.7393C17.1772 34.7393 19.1677 32.4645 20.1629 30.0474L25.1392 17.6777C21.4426 17.6777 19.5942 20.0948 18.599 22.654ZM52.1535 17.2512C50.0208 17.2512 48.3146 18.3886 46.8928 20.237L48.0302 10C45.0444 10 42.7696 12.5592 42.2008 16.2559L39.926 34.5972C41.6321 34.5972 43.3383 34.1706 44.3335 32.891C45.1866 34.0284 46.4663 34.8815 48.3146 34.8815C53.2909 34.8815 56.7032 29.1943 56.7032 23.7915C56.8454 18.8152 54.4283 17.2512 52.1535 17.2512ZM51.5847 26.0663C51.016 29.0521 49.452 31.0427 47.7459 31.0427C46.1819 31.0427 45.471 30.3318 45.471 30.3318C45.7554 27.7725 46.0397 26.0663 46.6084 24.6445C47.1771 23.2227 48.599 21.09 50.0208 21.09C51.4426 21.2322 52.1535 23.0806 51.5847 26.0663ZM69.2151 17.6777H65.8027V17.5355C66.0871 15.2607 66.5136 14.1232 68.362 13.981C69.4994 13.8389 70.0681 13.2701 70.2103 12.5592C70.3525 11.9905 70.6369 10.1422 70.6369 10.1422C63.67 10.1422 61.5373 13.128 60.9686 17.6777V17.8199H60.8264C59.689 17.8199 58.4094 19.0995 58.2672 20.6635L58.125 21.2322H60.3999L58.4094 37.1564L57.8407 40C57.9828 40 57.9828 40 58.125 40C61.3952 39.8578 63.3857 37.2986 63.9544 33.6019L65.5184 21.09H66.6558C67.6511 21.09 68.9307 20.0948 69.2151 18.2464V17.6777ZM87.1298 17.3934C83.1487 17.3934 79.452 20.3791 78.3146 24.9289C77.1771 29.4787 78.8833 35.0237 84.7127 35.0237C90.5421 35.0237 93.9544 29.3365 93.9544 24.6445C93.8122 19.9526 90.6843 17.3934 87.1298 17.3934ZM88.6937 25.9242C88.5515 28.0569 87.5563 31.1848 84.997 31.1848C82.4378 31.1848 82.8644 27.4882 83.0065 25.782C83.2909 23.9336 84.2862 21.2322 86.561 21.2322C88.6937 21.2322 88.9781 23.6493 88.6937 25.9242ZM113.575 22.654C113.575 22.654 111.585 28.91 111.443 29.4787C111.443 28.91 109.879 17.6777 109.879 17.6777C106.466 17.6777 104.618 20.0948 103.765 22.654C103.765 22.654 101.348 28.91 101.206 29.4787C101.206 29.0521 100.779 22.7962 100.779 22.7962C100.637 19.6682 97.6511 17.8199 95.3762 17.8199L98.2198 34.8815C101.774 34.8815 103.765 32.4645 104.76 29.9052C104.76 29.9052 106.893 24.3602 107.035 24.0758C107.035 24.3602 108.599 34.8815 108.599 34.8815C112.153 34.8815 114.144 32.6066 115.139 30.1896L119.831 17.6777C116.277 17.6777 114.428 20.0948 113.575 22.654ZM72.4852 10.1422L69.6416 33.4597L69.0729 36.3033C69.2151 36.3033 69.2151 36.3033 69.3572 36.3033C72.4852 36.3033 74.7601 33.4597 75.0444 30.0474L76.7506 16.6825C77.1771 12.7014 74.6179 10.1422 72.4852 10.1422Z" fill="#1B1B1B"/>
</g>
<defs>
<clipPath id="clip0_8624_21911">
<rect width="120" height="48" fill="white" transform="translate(0.399902)"/>
</clipPath>
</defs>
</svg>
